<?xml version="1.0" encoding="UTF-8" standalone="no"?>
<!-- Created with Inkscape (http://www.inkscape.org/) -->

<svg
   xmlns:dc="http://purl.org/dc/elements/1.1/"
   xmlns:cc="http://creativecommons.org/ns#"
   xmlns:rdf="http://www.w3.org/1999/02/22-rdf-syntax-ns#"
   xmlns:svg="http://www.w3.org/2000/svg"
   xmlns="http://www.w3.org/2000/svg"
   xmlns:sodipodi="http://sodipodi.sourceforge.net/DTD/sodipodi-0.dtd"
   xmlns:inkscape="http://www.inkscape.org/namespaces/inkscape"
   width="139.37338mm"
   height="80.400963mm"
   viewBox="0 0 139.37338 80.400963"
   version="1.1"
   id="svg8"
   inkscape:version="0.92.4 5da689c313, 2019-01-14"
   sodipodi:docname="AvaFrameLogo.svg"
   style="enable-background:new"
   inkscape:export-filename="/home/felix/Current/AvaFrame/Logo/AvaFrameLogo_withBack.png"
   inkscape:export-xdpi="91.120003"
   inkscape:export-ydpi="91.120003">
  <defs
     id="defs2" />
  <sodipodi:namedview
     id="base"
     pagecolor="#ffffff"
     bordercolor="#666666"
     borderopacity="1.0"
     inkscape:pageopacity="0"
     inkscape:pageshadow="2"
     inkscape:zoom="1.4"
     inkscape:cx="181.80252"
     inkscape:cy="63.509359"
     inkscape:document-units="mm"
     inkscape:current-layer="text875"
     showgrid="false"
     inkscape:window-width="1918"
     inkscape:window-height="1041"
     inkscape:window-x="0"
     inkscape:window-y="0"
     inkscape:window-maximized="0"
     showguides="false"
     inkscape:guide-bbox="true"
     inkscape:snap-global="true"
     fit-margin-top="10"
     fit-margin-left="10"
     fit-margin-right="10"
     fit-margin-bottom="10"
     inkscape:pagecheckerboard="true"
     inkscape:showpageshadow="true">
    <sodipodi:guide
       position="44.872895,35.783163"
       orientation="0,1"
       id="guide871"
       inkscape:locked="false" />
    <sodipodi:guide
       position="52.715904,75.092683"
       orientation="-0.8660254,0.5"
       id="guide873"
       inkscape:locked="false"
       inkscape:label=""
       inkscape:color="rgb(0,0,255)" />
    <sodipodi:guide
       position="54.322303,59.028692"
       orientation="-0.8660254,0.5"
       id="guide875"
       inkscape:locked="false"
       inkscape:label=""
       inkscape:color="rgb(0,0,255)" />
    <sodipodi:guide
       position="63.299236,46.083012"
       orientation="0.8660254,0.5"
       id="guide879"
       inkscape:locked="false"
       inkscape:label=""
       inkscape:color="rgb(0,0,255)" />
    <sodipodi:guide
       position="55.409035,60.910972"
       orientation="0.8660254,0.5"
       id="guide881"
       inkscape:locked="false"
       inkscape:label=""
       inkscape:color="rgb(0,0,255)" />
    <sodipodi:guide
       position="60.849511,70.334152"
       orientation="0.8660254,0.5"
       id="guide883"
       inkscape:locked="false"
       inkscape:label=""
       inkscape:color="rgb(0,0,255)" />
    <sodipodi:guide
       position="49.968559,70.334152"
       orientation="0,1"
       id="guide910"
       inkscape:locked="false" />
    <sodipodi:guide
       position="55.409036,60.910972"
       orientation="0,1"
       id="guide1058"
       inkscape:locked="false" />
    <sodipodi:guide
       position="52.924677,85.267732"
       orientation="0.8660254,0.5"
       id="guide1060"
       inkscape:locked="false"
       inkscape:label=""
       inkscape:color="rgb(0,0,255)" />
    <sodipodi:guide
       position="79.517991,75.178303"
       orientation="0.8660254,0.5"
       id="guide1062"
       inkscape:locked="false"
       inkscape:label=""
       inkscape:color="rgb(0,0,255)" />
    <sodipodi:guide
       position="22.255496,54.331282"
       orientation="0,1"
       id="guide1064"
       inkscape:locked="false" />
    <sodipodi:guide
       position="21.65414,46.045932"
       orientation="0,1"
       id="guide1066"
       inkscape:locked="false" />
    <sodipodi:guide
       position="70.029921,74.911033"
       orientation="0.8660254,0.5"
       id="guide1068"
       inkscape:locked="false"
       inkscape:label=""
       inkscape:color="rgb(0,0,255)" />
    <sodipodi:guide
       position="50.452433,51.124042"
       orientation="-0.8660254,0.5"
       id="guide1072"
       inkscape:locked="false"
       inkscape:label=""
       inkscape:color="rgb(0,0,255)" />
    <sodipodi:guide
       position="92.620411,35.783163"
       orientation="-0.8660254,0.5"
       id="guide1139"
       inkscape:locked="false"
       inkscape:label=""
       inkscape:color="rgb(0,0,255)" />
    <sodipodi:guide
       position="65.479722,64.893525"
       orientation="0.8660254,0.5"
       id="guide1033"
       inkscape:locked="false"
       inkscape:label=""
       inkscape:color="rgb(0,0,255)" />
  </sodipodi:namedview>
  <metadata
     id="metadata5">
    <rdf:RDF>
      <cc:Work
         rdf:about="">
        <dc:format>image/svg+xml</dc:format>
        <dc:type
           rdf:resource="http://purl.org/dc/dcmitype/StillImage" />
        <dc:title />
      </cc:Work>
    </rdf:RDF>
  </metadata>
  <g
     inkscape:label="Layer 1"
     inkscape:groupmode="layer"
     id="layer1"
     style="display:inline"
     transform="translate(-35.541537,-91.458831)">
    <g
       aria-label="THE OPEN AVALANCHE FRAMEWORK"
       transform="scale(0.98277848,1.0175233)"
       style="font-style:normal;font-variant:normal;font-weight:normal;font-stretch:normal;font-size:10.4010725px;line-height:1.25;font-family:AXIS;-inkscape-font-specification:AXIS;letter-spacing:0px;word-spacing:0px;fill:#51ade5;fill-opacity:1;stroke:none;stroke-width:0.26002678"
       id="text3084">
      <path
         d="m 50.803507,154.90357 h -4.056419 v 0.87369 h 1.541439 v 3.18273 h 0.973541 v -3.18273 h 1.541439 z"
         style="font-size:6.2406435px;fill:#51ade5;fill-opacity:1;stroke-width:0.26002678"
         id="path902" />
      <path
         d="m 54.279536,154.90357 v 1.69746 h -1.772343 v -1.69746 h -0.973541 v 4.05642 h 0.973541 v -1.48527 h 1.772343 v 1.48527 h 0.97354 v -4.05642 z"
         style="font-size:6.2406435px;fill:#51ade5;fill-opacity:1;stroke-width:0.26002678"
         id="path904" />
      <path
         d="m 59.016182,155.77726 v -0.87369 h -3.051674 v 4.05642 h 3.051674 v -0.86745 h -2.078134 v -0.72391 h 1.641289 v -0.86745 h -1.641289 v -0.72392 z"
         style="font-size:6.2406435px;fill:#51ade5;fill-opacity:1;stroke-width:0.26002678"
         id="path906" />
      <path
         d="m 64.439293,154.79748 c -1.185722,0 -2.140541,0.96106 -2.140541,2.14054 0,1.17948 0.954819,2.1343 2.140541,2.1343 1.179482,0 2.1343,-0.95482 2.1343,-2.1343 0,-1.17948 -0.954818,-2.14054 -2.1343,-2.14054 z m 0,3.33875 c -0.667749,0 -1.204444,-0.5367 -1.204444,-1.19821 0,-0.66151 0.536695,-1.20444 1.204444,-1.20444 0.661508,0 1.198204,0.54293 1.198204,1.20444 0,0.66151 -0.536696,1.19821 -1.198204,1.19821 z"
         style="font-size:6.2406435px;fill:#51ade5;fill-opacity:1;stroke-width:0.26002678"
         id="path908" />
      <path
         d="m 70.82347,156.40757 c -0.04368,-0.79256 -0.617823,-1.504 -1.454069,-1.504 -0.48053,0 -1.972044,0 -1.972044,0 v 4.05642 h 0.992263 v -0.86121 h 0.836246 c 0.848727,0 1.547679,-0.66775 1.597604,-1.50399 0,-0.0312 0,-0.0624 0,-0.0936 0,-0.0312 0,-0.0624 0,-0.0936 z m -1.610086,0.69895 H 68.38962 v -1.21068 h 0.836246 c 0.330754,0.006 0.592861,0.27458 0.592861,0.60534 0,0.33699 -0.268348,0.60534 -0.605343,0.60534 z"
         style="font-size:6.2406435px;fill:#51ade5;fill-opacity:1;stroke-width:0.26002678"
         id="path910" />
      <path
         d="m 74.436793,155.77726 v -0.87369 h -3.051675 v 4.05642 h 3.051675 v -0.86745 h -2.078135 v -0.72391 h 1.64129 v -0.86745 h -1.64129 v -0.72392 z"
         style="font-size:6.2406435px;fill:#51ade5;fill-opacity:1;stroke-width:0.26002678"
         id="path913" />
      <path
         d="m 78.4308,154.90357 v 2.52746 l -2.021968,-2.52746 h -0.973541 v 4.05642 h 0.973541 v -2.42761 l 2.021968,2.42761 h 0.97354 v -4.05642 z"
         style="font-size:6.2406435px;fill:#51ade5;fill-opacity:1;stroke-width:0.26002678"
         id="path915" />
      <path
         d="m 86.337687,158.95999 h 1.079632 l -1.94084,-4.05642 h -0.736396 l -2.015728,4.05642 h 1.098353 l 0.274588,-0.55542 h 1.965803 z m -1.834749,-1.34798 0.574139,-1.30429 0.605343,1.30429 z"
         style="font-size:6.2406435px;fill:#51ade5;fill-opacity:1;stroke-width:0.26002678"
         id="path917" />
      <path
         d="m 89.944766,154.90357 -1.110834,2.48378 -1.117075,-2.48378 h -1.110835 l 1.74114,4.05642 h 0.97354 l 1.734899,-4.05642 z"
         style="font-size:6.2406435px;fill:#51ade5;fill-opacity:1;stroke-width:0.26002678"
         id="path919" />
      <path
         d="m 93.845149,158.95999 h 1.079631 l -1.94084,-4.05642 h -0.736396 l -2.015728,4.05642 h 1.098354 l 0.274588,-0.55542 h 1.965803 z m -1.834749,-1.34798 0.574139,-1.30429 0.605342,1.30429 z"
         style="font-size:6.2406435px;fill:#51ade5;fill-opacity:1;stroke-width:0.26002678"
         id="path921" />
      <path
         d="m 96.435003,157.98645 v -3.08288 h -0.973541 v 4.05642 h 3.513483 v -0.97354 z"
         style="font-size:6.2406435px;fill:#51ade5;fill-opacity:1;stroke-width:0.26002678"
         id="path923" />
      <path
         d="m 103.29346,158.95999 h 1.07963 l -1.94084,-4.05642 h -0.73639 l -2.015733,4.05642 h 1.098353 l 0.27459,-0.55542 h 1.9658 z m -1.83475,-1.34798 0.57414,-1.30429 0.60534,1.30429 z"
         style="font-size:6.2406435px;fill:#51ade5;fill-opacity:1;stroke-width:0.26002678"
         id="path925" />
      <path
         d="m 107.92401,154.90357 v 2.52746 l -2.02197,-2.52746 h -0.97354 v 4.05642 h 0.97354 v -2.42761 l 2.02197,2.42761 h 0.97354 v -4.05642 z"
         style="font-size:6.2406435px;fill:#51ade5;fill-opacity:1;stroke-width:0.26002678"
         id="path927" />
      <path
         d="m 112.73554,157.72434 c -0.32452,0.27459 -0.58038,0.40565 -0.98602,0.40565 -0.66151,0 -1.19821,-0.5367 -1.19821,-1.19821 0,-0.66151 0.5367,-1.20444 1.19821,-1.20444 0.40564,0 0.71143,0.16225 0.98602,0.41188 l 0.73639,-0.47429 c -0.38692,-0.53045 -1.01722,-0.87369 -1.72241,-0.87369 -1.17949,0 -2.1343,0.96106 -2.1343,2.14054 0,1.17948 0.95481,2.1343 2.1343,2.1343 0.70519,0 1.33549,-0.33699 1.72241,-0.86745 z"
         style="font-size:6.2406435px;fill:#51ade5;fill-opacity:1;stroke-width:0.26002678"
         id="path929" />
      <path
         d="m 116.99789,154.90357 v 1.69746 h -1.77234 v -1.69746 h -0.97354 v 4.05642 h 0.97354 v -1.48527 h 1.77234 v 1.48527 h 0.97354 v -4.05642 z"
         style="font-size:6.2406435px;fill:#51ade5;fill-opacity:1;stroke-width:0.26002678"
         id="path931" />
      <path
         d="m 121.73454,155.77726 v -0.87369 h -3.05167 v 4.05642 h 3.05167 v -0.86745 h -2.07813 v -0.72391 h 1.64129 v -0.86745 h -1.64129 v -0.72392 z"
         style="font-size:6.2406435px;fill:#51ade5;fill-opacity:1;stroke-width:0.26002678"
         id="path933" />
      <path
         d="m 128.13119,155.77726 v -0.87369 h -3.05792 v 0.87369 3.18273 h 0.97354 v -1.38542 h 1.64129 v -0.87369 h -1.64129 v -0.92362 z"
         style="font-size:6.2406435px;fill:#51ade5;fill-opacity:1;stroke-width:0.26002678"
         id="path935" />
      <path
         d="m 132.48092,158.95999 -0.89242,-1.22316 c 0.43061,-0.23091 0.72392,-0.64903 0.72392,-1.23565 0,-0.88617 -0.62406,-1.59761 -1.45407,-1.59761 -0.48053,0 -1.97204,0 -1.97204,0 v 4.05642 h 0.99226 v -1.01098 H 130.59 l 0.66775,1.01098 z m -2.60235,-3.05791 h 0.83 c 0.33076,0 0.59911,0.26834 0.59911,0.5991 0,0.33699 -0.27459,0.55542 -0.60535,0.55542 h -0.82376 z"
         style="font-size:6.2406435px;fill:#51ade5;fill-opacity:1;stroke-width:0.26002678"
         id="path937" />
      <path
         d="m 136.47492,158.95999 h 1.07963 l -1.94084,-4.05642 h -0.73639 l -2.01573,4.05642 h 1.09835 l 0.27459,-0.55542 h 1.9658 z m -1.83475,-1.34798 0.57414,-1.30429 0.60534,1.30429 z"
         style="font-size:6.2406435px;fill:#51ade5;fill-opacity:1;stroke-width:0.26002678"
         id="path939" />
      <path
         d="m 141.52983,154.90357 v 0.006 -0.006 l -1.167,2.29656 -1.14828,-2.27783 v -0.0187 h -0.97978 v 4.05642 h 0.97978 v -2.05317 l 0.9361,2.05317 h 0.42436 l 0.95482,-2.07189 v 2.07189 h 0.97354 v -4.05642 z"
         style="font-size:6.2406435px;fill:#51ade5;fill-opacity:1;stroke-width:0.26002678"
         id="path941" />
      <path
         d="m 146.35384,155.77726 v -0.87369 h -3.05167 v 4.05642 h 3.05167 v -0.86745 h -2.07813 v -0.72391 h 1.64129 v -0.86745 h -1.64129 v -0.72392 z"
         style="font-size:6.2406435px;fill:#51ade5;fill-opacity:1;stroke-width:0.26002678"
         id="path943" />
      <path
         d="m 152.68807,154.90357 -1.11083,2.48378 -0.86745,-2.48378 h -0.96106 l -0.86121,2.48378 -1.11707,-2.48378 h -1.11084 l 1.74114,4.05642 h 1.07339 l 0.75512,-2.25287 0.75512,2.25287 h 1.07339 l 1.74114,-4.05642 z"
         style="font-size:6.2406435px;fill:#51ade5;fill-opacity:1;stroke-width:0.26002678"
         id="path945" />
      <path
         d="m 155.83959,154.79748 c -1.18572,0 -2.14054,0.96106 -2.14054,2.14054 0,1.17948 0.95482,2.1343 2.14054,2.1343 1.17948,0 2.1343,-0.95482 2.1343,-2.1343 0,-1.17948 -0.95482,-2.14054 -2.1343,-2.14054 z m 0,3.33875 c -0.66775,0 -1.20445,-0.5367 -1.20445,-1.19821 0,-0.66151 0.5367,-1.20444 1.20445,-1.20444 0.66151,0 1.1982,0.54293 1.1982,1.20444 0,0.66151 -0.53669,1.19821 -1.1982,1.19821 z"
         style="font-size:6.2406435px;fill:#51ade5;fill-opacity:1;stroke-width:0.26002678"
         id="path947" />
      <path
         d="m 162.44219,158.95999 -0.89241,-1.22316 c 0.4306,-0.23091 0.72391,-0.64903 0.72391,-1.23565 0,-0.88617 -0.62406,-1.59761 -1.45407,-1.59761 -0.48053,0 -1.97204,0 -1.97204,0 v 4.05642 h 0.99226 v -1.01098 h 0.71144 l 0.66774,1.01098 z m -2.60235,-3.05791 h 0.83001 c 0.33075,0 0.5991,0.26834 0.5991,0.5991 0,0.33699 -0.27459,0.55542 -0.60534,0.55542 h -0.82377 z"
         style="font-size:6.2406435px;fill:#51ade5;fill-opacity:1;stroke-width:0.26002678"
         id="path949" />
      <path
         d="m 166.01807,158.95999 h 1.37918 l -1.92835,-2.28407 1.82226,-1.77235 h -1.23564 l -1.6725,1.62881 v -1.62881 h -0.97354 v 4.05642 h 0.97354 v -1.14204 l 0.41189,-0.42436 z"
         style="font-size:6.2406435px;fill:#51ade5;fill-opacity:1;stroke-width:0.26002678"
         id="path951" />
    </g>
    <text
       xml:space="preserve"
       style="font-style:normal;font-variant:normal;font-weight:normal;font-stretch:normal;font-size:10.58333302px;line-height:1.25;font-family:AXIS;-inkscape-font-specification:AXIS;letter-spacing:0px;word-spacing:0px;fill:#000000;fill-opacity:1;stroke:none;stroke-width:0.26458332"
       x="-74.832001"
       y="75.08625"
       id="text871"><tspan
         sodipodi:role="line"
         id="tspan869"
         x="-74.832001"
         y="84.346664"
         style="stroke-width:0.26458332" /></text>
    <g
       aria-label="AvaFrame"
       style="font-style:normal;font-variant:normal;font-weight:normal;font-stretch:normal;font-size:10.58333302px;line-height:1.25;font-family:Axis;-inkscape-font-specification:Axis;letter-spacing:0px;word-spacing:0px;fill:#0e4160;fill-opacity:1;stroke:none;stroke-width:0.26458332"
       id="text875">
      <path
         d="m 58.614071,154.71643 h 3.905955 l -7.021689,-14.67555 h -2.664178 l -7.292622,14.67555 h 3.973689 l 0.993422,-2.00942 h 7.112 z m -6.637867,-4.8768 2.077155,-4.71875 2.190045,4.71875 z"
         style="font-size:22.57777786px;fill:#0e4160;fill-opacity:1;stroke-width:0.26458332"
         id="path954" />
      <path
         d="m 70.331901,143.08888 -3.025422,6.97653 -3.002844,-6.97653 h -3.431823 l 4.492978,11.62755 h 3.883378 l 4.492978,-11.62755 z"
         style="font-size:22.57777786px;fill:#0e4160;fill-opacity:1;stroke-width:0.26458332"
         id="path956" />
      <path
         d="m 84.014005,143.11145 v 0.90311 c -0.428978,-0.33866 -0.903111,-0.6096 -1.399822,-0.83537 -0.767645,-0.31609 -1.580445,-0.49671 -2.415822,-0.49671 -0.857956,0 -1.670756,0.18062 -2.4384,0.49671 -0.722489,0.31609 -1.399823,0.76764 -1.964267,1.33209 -0.564445,0.56444 -1.016,1.24177 -1.332089,1.96426 -0.316089,0.76765 -0.474133,1.58045 -0.474133,2.41582 0,0.83538 0.158044,1.64818 0.474133,2.41583 0.316089,0.74506 0.767644,1.4224 1.332089,1.98684 0.564444,0.56445 1.241778,1.016 1.964267,1.33209 0.767644,0.31609 1.580444,0.47413 2.4384,0.47413 0.835377,0 1.648177,-0.15804 2.415822,-0.47413 0.496711,-0.22578 0.970844,-0.49671 1.399822,-0.83538 v 0.92569 h 3.476978 v -11.60498 z m -3.815644,8.91823 c -1.738489,0 -3.138312,-1.39983 -3.138312,-3.13832 0,-1.71591 1.399823,-3.11573 3.138312,-3.11573 1.715911,0 3.115733,1.39982 3.115733,3.11573 0,1.73849 -1.399822,3.13832 -3.115733,3.13832 z"
         style="font-size:22.57777786px;fill:#0e4160;fill-opacity:1;stroke-width:0.26458332"
         id="path958" />
      <path
         d="m 102.16651,143.20176 v -3.16088 H 91.1034 v 3.16088 11.51467 h 3.522133 v -5.01227 h 5.937957 v -3.16088 h -5.937957 v -3.34152 z"
         style="font-size:22.57777786px;fill:#0e4160;fill-opacity:1;stroke-width:0.26458332"
         id="path960" />
      <path
         d="m 110.09127,142.77279 c -1.96426,0 -2.59644,1.30951 -2.75449,1.69333 v -1.35467 h -3.47697 v 11.60498 h 3.47697 c 0,0 0,-3.88338 0,-5.37351 0,-2.25778 1.44498,-3.54471 3.11574,-3.54471 0.24835,0 0.49671,0.0226 0.72249,0.0677 v -2.95769 c -0.31609,-0.0903 -0.72249,-0.13546 -1.08374,-0.13546 z"
         style="font-size:22.57777786px;fill:#0e4160;fill-opacity:1;stroke-width:0.26458332"
         id="path962" />
      <path
         d="m 122.19294,143.11145 v 0.90311 c -0.42898,-0.33866 -0.90311,-0.6096 -1.39982,-0.83537 -0.76765,-0.31609 -1.58045,-0.49671 -2.41582,-0.49671 -0.85796,0 -1.67076,0.18062 -2.4384,0.49671 -0.72249,0.31609 -1.39983,0.76764 -1.96427,1.33209 -0.56444,0.56444 -1.016,1.24177 -1.33209,1.96426 -0.31609,0.76765 -0.47413,1.58045 -0.47413,2.41582 0,0.83538 0.15804,1.64818 0.47413,2.41583 0.31609,0.74506 0.76765,1.4224 1.33209,1.98684 0.56444,0.56445 1.24178,1.016 1.96427,1.33209 0.76764,0.31609 1.58044,0.47413 2.4384,0.47413 0.83537,0 1.64817,-0.15804 2.41582,-0.47413 0.49671,-0.22578 0.97084,-0.49671 1.39982,-0.83538 v 0.92569 h 3.47698 v -11.60498 z m -3.81564,8.91823 c -1.73849,0 -3.13831,-1.39983 -3.13831,-3.13832 0,-1.71591 1.39982,-3.11573 3.13831,-3.11573 1.71591,0 3.11573,1.39982 3.11573,3.11573 0,1.73849 -1.39982,3.13832 -3.11573,3.13832 z"
         style="font-size:22.57777786px;fill:#0e4160;fill-opacity:1;stroke-width:0.26458332"
         id="path964" />
      <path
         d="m 145.96731,142.79536 c -1.53528,-0.22577 -2.98026,0 -4.10915,0.92569 -0.51929,0.42898 -0.90311,0.90311 -1.19662,1.37725 -0.8128,-1.37725 -2.28036,-2.39325 -4.85423,-2.39325 -1.89653,0 -3.09315,1.28694 -3.11573,1.30951 v -0.92568 h -3.52213 v 11.62755 h 3.56729 c 0,0 -0.0226,-4.38009 0,-5.82507 0,-1.53528 1.15146,-2.75448 2.6416,-2.75448 2.05457,0 2.70933,0.97084 2.70933,2.82222 0,1.15146 0,5.75733 0,5.75733 h 3.49956 v -5.82507 c 0,-1.53528 1.15146,-2.75448 2.6416,-2.75448 2.05457,0 2.70933,0.97084 2.70933,2.82222 0,3.99626 0,5.75733 0,5.75733 h 3.49955 c 0,0 0,-4.62844 0,-5.75733 0,-2.46098 -0.8128,-5.57671 -4.4704,-6.16374 z"
         style="font-size:22.57777786px;fill:#0e4160;fill-opacity:1;stroke-width:0.26458332"
         id="path966" />
      <path
         d="m 161.72658,150.92336 c -0.72249,0.79023 -1.60302,1.2192 -2.55129,1.2192 -1.35466,0 -2.52871,-0.8128 -3.00284,-2.032 h 8.64729 c 0.6096,-3.63502 -1.76107,-7.42808 -5.62187,-7.42808 -3.70276,0 -6.57013,3.34151 -6.18631,6.88622 0.33867,3.16089 2.98027,5.53155 6.16373,5.53155 2.2352,0 3.79307,-1.12889 5.08,-2.61902 z m -2.52871,-5.2832 c 1.33209,0 2.73191,1.016 2.73191,2.2352 h -5.75733 c 0,-1.15146 1.37724,-2.2352 3.02542,-2.2352 z"
         style="font-size:22.57777786px;fill:#0e4160;fill-opacity:1;stroke-width:0.26458332"
         id="path968" />
    </g>
  </g>
  <g
     inkscape:groupmode="layer"
     id="layer4"
     inkscape:label="NegativF"
     style="display:none"
     transform="translate(-35.541537,-91.458831)">
    <path
       style="fill:#51ade5;fill-opacity:1;stroke:none;stroke-width:0.28058788px;stroke-linecap:butt;stroke-linejoin:miter;stroke-opacity:1"
       d="m 113.6544,110.94882 3.79878,6.57969 h 21.41753 l 3.79879,-6.57969 z"
       id="path1142"
       inkscape:connector-curvature="0"
       sodipodi:nodetypes="ccccc" />
    <path
       style="fill:#51ade5;fill-opacity:1;stroke:none;stroke-width:0.26458332px;stroke-linecap:butt;stroke-linejoin:miter;stroke-opacity:1"
       d="m 122.23673,125.81386 5.92522,10.26277 5.92521,-10.26277 z"
       id="path1144"
       inkscape:connector-curvature="0" />
  </g>
  <g
     inkscape:groupmode="layer"
     id="layer3"
     inkscape:label="Layer 3"
     style="display:inline"
     transform="translate(-35.541537,-91.458831)">
    <g
       id="g925"
       transform="translate(1.2157936e-6,1.1514243e-6)"
       inkscape:export-xdpi="5.1199999"
       inkscape:export-ydpi="5.1199999">
      <path
         inkscape:export-ydpi="96"
         inkscape:export-xdpi="96"
         inkscape:connector-curvature="0"
         id="path887"
         d="m 65.562077,136.07663 h 10.88095 l 14.172184,-24.54695 -5.440474,-9.42317 z"
         style="display:inline;fill:#51ade5;fill-opacity:1;stroke:none;stroke-width:0.065;stroke-linecap:butt;stroke-linejoin:miter;stroke-miterlimit:4;stroke-dasharray:none;stroke-opacity:1;enable-background:new" />
      <path
         inkscape:export-ydpi="96"
         inkscape:export-xdpi="96"
         inkscape:connector-curvature="0"
         id="path912"
         d="m 85.510096,101.52564 h 10.880953 l 19.948021,34.55099 h -10.88095 z"
         style="display:inline;fill:#5ce0e6;fill-opacity:1;stroke:none;stroke-width:0.065;stroke-linecap:butt;stroke-linejoin:miter;stroke-miterlimit:4;stroke-dasharray:none;stroke-opacity:1;enable-background:new" />
      <path
         inkscape:export-ydpi="96"
         inkscape:export-xdpi="96"
         inkscape:connector-curvature="0"
         id="path1074"
         d="m 87.845671,117.52851 -4.78355,8.28535 15.778652,-0.0371 -4.76214,-8.24827 z"
         style="display:inline;fill:#51ade5;fill-opacity:1;stroke:#51ade5;stroke-width:0.1;stroke-linecap:butt;stroke-linejoin:miter;stroke-miterlimit:4;stroke-dasharray:none;stroke-opacity:1;enable-background:new" />
      <path
         inkscape:export-ydpi="96"
         inkscape:export-xdpi="96"
         sodipodi:nodetypes="ccccc"
         inkscape:connector-curvature="0"
         id="path1076"
         d="m 117.45318,117.52851 4.78355,8.28535 8.60658,-0.013 4.78355,-8.28535 z"
         style="display:inline;fill:#51ade5;fill-opacity:1;stroke:none;stroke-width:0.1;stroke-linecap:butt;stroke-linejoin:miter;stroke-miterlimit:4;stroke-dasharray:none;stroke-opacity:1" />
      <path
         inkscape:export-ydpi="96"
         inkscape:export-xdpi="96"
         sodipodi:nodetypes="ccccc"
         inkscape:connector-curvature="0"
         id="path1070"
         d="m 108.23051,101.45883 5.42389,9.48999 h 25.79949 l 5.44048,-9.42318 z"
         style="display:inline;fill:#51ade5;fill-opacity:1;stroke:none;stroke-width:0.1;stroke-linecap:butt;stroke-linejoin:miter;stroke-miterlimit:4;stroke-dasharray:none;stroke-opacity:1" />
    </g>
    <g
       transform="translate(0.05688044,0.04389433)"
       style="display:inline;opacity:1;enable-background:new"
       id="g1012">
      <rect
         style="display:inline;fill:#5ce0e6;fill-opacity:0.95027627;stroke:none;stroke-width:0.0550407;stroke-miterlimit:4;stroke-dasharray:none;enable-background:new"
         id="rect914"
         width="3.4406743"
         height="3.4406743"
         x="32.646046"
         y="172.4846"
         transform="rotate(-30)"
         inkscape:export-xdpi="96"
         inkscape:export-ydpi="96" />
      <rect
         style="display:inline;fill:#5ce0e6;fill-opacity:0.95027627;stroke:none;stroke-width:0.065;stroke-miterlimit:4;stroke-dasharray:none;enable-background:new"
         id="rect914-0"
         width="4.0632443"
         height="4.0632443"
         x="32.37767"
         y="167.14896"
         transform="rotate(-30)"
         inkscape:export-xdpi="96"
         inkscape:export-ydpi="96" />
      <rect
         style="display:inline;fill:#5ce0e6;fill-opacity:0.95027627;stroke:none;stroke-width:0.03844188;stroke-miterlimit:4;stroke-dasharray:none;enable-background:new"
         id="rect914-0-6"
         width="2.4030576"
         height="2.4030576"
         x="37.084099"
         y="170.61079"
         transform="rotate(-30)"
         inkscape:export-xdpi="96"
         inkscape:export-ydpi="96" />
      <rect
         style="display:inline;fill:#5ce0e6;fill-opacity:1;stroke:none;stroke-width:0.02848259;stroke-miterlimit:4;stroke-dasharray:none;enable-background:new"
         id="rect914-0-6-1"
         width="1.7804875"
         height="1.7804875"
         x="39.126236"
         y="167.82971"
         transform="rotate(-30)"
         inkscape:export-xdpi="96"
         inkscape:export-ydpi="96" />
      <rect
         style="display:inline;fill:#5ce0e6;fill-opacity:1;stroke:none;stroke-width:0.03844188;stroke-miterlimit:4;stroke-dasharray:none;enable-background:new"
         id="rect914-0-6-5"
         width="2.4030576"
         height="2.4030576"
         x="33.387325"
         y="163.78467"
         transform="rotate(-30)"
         inkscape:export-xdpi="96"
         inkscape:export-ydpi="96" />
      <rect
         style="display:inline;fill:#5ce0e6;fill-opacity:0.95027627;stroke:none;stroke-width:0.03844188;stroke-miterlimit:4;stroke-dasharray:none;enable-background:new"
         id="rect914-0-6-9"
         width="2.4030576"
         height="2.4030576"
         x="37.029404"
         y="164.46895"
         transform="rotate(-30)"
         inkscape:export-xdpi="96"
         inkscape:export-ydpi="96" />
      <rect
         style="display:inline;fill:#5ce0e6;fill-opacity:0.95027627;stroke:none;stroke-width:0.02073647;stroke-miterlimit:4;stroke-dasharray:none;enable-background:new"
         id="rect914-0-6-9-4"
         width="1.2962664"
         height="1.2962664"
         x="37.209122"
         y="162.07878"
         transform="rotate(-30)"
         inkscape:export-xdpi="96"
         inkscape:export-ydpi="96" />
      <rect
         style="display:inline;fill:#5ce0e6;fill-opacity:0.95027627;stroke:none;stroke-width:0.01631011;stroke-miterlimit:4;stroke-dasharray:none;enable-background:new"
         id="rect914-0-6-9-9"
         width="1.0195687"
         height="1.0195687"
         x="35.068775"
         y="160.68332"
         transform="rotate(-30)"
         inkscape:export-xdpi="96"
         inkscape:export-ydpi="96" />
      <rect
         style="display:inline;fill:#5ce0e6;fill-opacity:0.95027627;stroke:none;stroke-width:0.01520352;stroke-miterlimit:4;stroke-dasharray:none;enable-background:new"
         id="rect914-0-6-9-0"
         width="0.95039427"
         height="0.95039427"
         x="38.60585"
         y="159.84859"
         transform="rotate(-30)"
         inkscape:export-xdpi="96"
         inkscape:export-ydpi="96" />
      <rect
         style="display:inline;fill:#5ce0e6;fill-opacity:0.95027627;stroke:none;stroke-width:0.01631011;stroke-miterlimit:4;stroke-dasharray:none;enable-background:new"
         id="rect914-0-6-9-9-9"
         width="1.0195687"
         height="1.0195687"
         x="37.027832"
         y="157.66809"
         transform="rotate(-30)"
         inkscape:export-xdpi="96"
         inkscape:export-ydpi="96" />
      <rect
         style="display:inline;fill:#5ce0e6;fill-opacity:0.95027627;stroke:none;stroke-width:0.01631011;stroke-miterlimit:4;stroke-dasharray:none;enable-background:new"
         id="rect914-0-6-9-9-1"
         width="1.0195687"
         height="1.0195687"
         x="34.622532"
         y="158.24342"
         transform="rotate(-30)"
         inkscape:export-xdpi="96"
         inkscape:export-ydpi="96" />
      <rect
         style="display:inline;fill:#5ce0e6;fill-opacity:0.95027627;stroke:none;stroke-width:0.01631011;stroke-miterlimit:4;stroke-dasharray:none;enable-background:new"
         id="rect914-0-6-9-9-7"
         width="1.0195687"
         height="1.0195687"
         x="36.052605"
         y="155.57748"
         transform="rotate(-30)"
         inkscape:export-xdpi="96"
         inkscape:export-ydpi="96" />
      <rect
         style="display:inline;fill:#5ce0e6;fill-opacity:0.95027627;stroke:none;stroke-width:0.0100503;stroke-miterlimit:4;stroke-dasharray:none;enable-background:new"
         id="rect914-0-6-9-9-7-3"
         width="0.62825894"
         height="0.62825894"
         x="38.188339"
         y="153.22774"
         transform="rotate(-30)"
         inkscape:export-xdpi="96"
         inkscape:export-ydpi="96" />
      <rect
         style="display:inline;fill:#5ce0e6;fill-opacity:0.95027627;stroke:none;stroke-width:0.01631011;stroke-miterlimit:4;stroke-dasharray:none;enable-background:new"
         id="rect914-0-6-9-9-7-1"
         width="1.0195687"
         height="1.0195687"
         x="38.047401"
         y="156.64853"
         transform="rotate(-30)"
         inkscape:export-xdpi="96"
         inkscape:export-ydpi="96" />
      <rect
         style="display:inline;fill:#5ce0e6;fill-opacity:0.95027627;stroke:none;stroke-width:0.01631011;stroke-miterlimit:4;stroke-dasharray:none;enable-background:new"
         id="rect914-0-6-9-9-7-8"
         width="1.0195687"
         height="1.0195687"
         x="34.110893"
         y="151.87109"
         transform="rotate(-30)"
         inkscape:export-xdpi="96"
         inkscape:export-ydpi="96" />
      <rect
         style="display:inline;fill:#5ce0e6;fill-opacity:0.95027627;stroke:none;stroke-width:0.0100503;stroke-miterlimit:4;stroke-dasharray:none;enable-background:new"
         id="rect914-0-6-9-9-7-3-6"
         width="0.62825894"
         height="0.62825894"
         x="38.068409"
         y="150.74367"
         transform="rotate(-30)"
         inkscape:export-xdpi="96"
         inkscape:export-ydpi="96" />
      <rect
         style="display:inline;fill:#5ce0e6;fill-opacity:0.95027627;stroke:none;stroke-width:0.0100503;stroke-miterlimit:4;stroke-dasharray:none;enable-background:new"
         id="rect914-0-6-9-9-7-3-4"
         width="0.62825894"
         height="0.62825894"
         x="34.976524"
         y="153.95909"
         transform="rotate(-30)"
         inkscape:export-xdpi="96"
         inkscape:export-ydpi="96" />
      <rect
         style="display:inline;fill:#5ce0e6;fill-opacity:0.95027627;stroke:none;stroke-width:0.0100503;stroke-miterlimit:4;stroke-dasharray:none;enable-background:new"
         id="rect914-0-6-9-9-7-3-3"
         width="0.62825894"
         height="0.62825894"
         x="36.032448"
         y="149.74557"
         transform="rotate(-30)"
         inkscape:export-xdpi="96"
         inkscape:export-ydpi="96" />
    </g>
  </g>
  <g
     inkscape:groupmode="layer"
     id="layer2"
     inkscape:label="Layer 2"
     style="display:none;opacity:1"
     transform="translate(-35.541537,-91.458831)">
    <text
       xml:space="preserve"
       style="font-style:normal;font-weight:normal;font-size:11.28930187px;line-height:1.25;font-family:sans-serif;letter-spacing:0px;word-spacing:0px;display:inline;fill:#000000;fill-opacity:1;stroke:none;stroke-width:0.28223255"
       x="62.521866"
       y="145.18263"
       id="text4520"
       inkscape:transform-center-x="0.91234803"
       inkscape:transform-center-y="-0.26727959"
       transform="scale(1.0667057,0.93746569)"><tspan
         sodipodi:role="line"
         id="tspan4518"
         x="62.521866"
         y="145.18263"
         style="font-style:normal;font-variant:normal;font-weight:bold;font-stretch:normal;font-size:54.18865204px;font-family:AXIS;-inkscape-font-specification:'AXIS Bold';stroke-width:0.28223255">A</tspan></text>
    <text
       xml:space="preserve"
       style="enable-background:new;display:inline;font-style:normal;font-variant:normal;font-weight:normal;font-stretch:normal;font-size:10.4010725px;line-height:1.25;font-family:AXIS;-inkscape-font-specification:AXIS;letter-spacing:0px;word-spacing:0px;fill:#51ade5;fill-opacity:1;stroke:none;stroke-width:0.26002678"
       x="-9.4297085"
       y="187.12444"
       id="text3084-3"
       transform="scale(0.98277847,1.0175233)"
       inkscape:export-xdpi="96"
       inkscape:export-ydpi="96"><tspan
         sodipodi:role="line"
         id="tspan3082-6"
         x="-9.4297085"
         y="187.12444"
         style="font-size:6.24064302px;fill:#51ade5;fill-opacity:1;stroke-width:0.26002678">THE OPEN AVALANCHE FRAMEWORK</tspan></text>
    <text
       xml:space="preserve"
       style="enable-background:new;display:inline;font-style:normal;font-variant:normal;font-weight:normal;font-stretch:normal;font-size:10.58333302px;line-height:1.25;font-family:Axis;-inkscape-font-specification:Axis;letter-spacing:0px;word-spacing:0px;fill:#0e4160;fill-opacity:1;stroke:none;stroke-width:0.26458332"
       x="-10.578125"
       y="183.3744"
       id="text875-7"><tspan
         sodipodi:role="line"
         id="tspan873-5"
         x="-10.578125"
         y="183.3744"
         style="font-size:22.57777786px;fill:#0e4160;fill-opacity:1;stroke-width:0.26458332">AvaFrame</tspan></text>
  </g>
</svg>
